<svg id="Ebene_1" data-name="Ebene 1" xmlns="http://www.w3.org/2000/svg" viewBox="0 0 524.99 525"><defs><style>.cls-1{fill:none;}</style></defs><title>Artboard 2</title><path class="cls-1" d="M262.5,113.71c-82.05,0-148.79,66.74-148.79,148.79S180.45,411.29,262.5,411.29a148,148,0,0,0,87.68-28.66l-7.82-7.82a33.65,33.65,0,0,1,0-47.53l11.44-11.43a33.64,33.64,0,0,1,47.53,0l0,0a148,148,0,0,0,9.92-53.39C411.29,180.45,344.54,113.71,262.5,113.71Z"/><path class="cls-1" d="M262.5,444.9c-100.58,0-182.41-81.82-182.41-182.4S161.92,80.09,262.5,80.09,444.9,161.92,444.9,262.5a181.33,181.33,0,0,1-18,78.94l34.38,34.38A227.48,227.48,0,0,0,491.38,262.5c0-126.21-102.68-228.89-228.88-228.89S33.61,136.29,33.61,262.5,136.29,491.38,262.5,491.38a227.82,227.82,0,0,0,144.73-51.7l-33.06-33.06A181.5,181.5,0,0,1,262.5,444.9Z"/><path d="M485.81,400.32A261,261,0,0,0,525,262.5C525,117.76,407.24,0,262.5,0S0,117.76,0,262.5,117.76,525,262.5,525a261.29,261.29,0,0,0,168.58-61.47l9.83,9.83a33.65,33.65,0,0,0,47.54,0l11.43-11.43a33.67,33.67,0,0,0,0-47.54Zm-9.7,37.84-11.43,11.43L366.13,351l11.43-11.43ZM401.37,315.89l0,0a33.64,33.64,0,0,0-47.53,0l-11.44,11.43a33.65,33.65,0,0,0,0,47.53l7.82,7.82a148,148,0,0,1-87.68,28.66c-82.05,0-148.79-66.75-148.79-148.79S180.45,113.71,262.5,113.71,411.29,180.45,411.29,262.5A148,148,0,0,1,401.37,315.89ZM262.5,491.38c-126.21,0-228.89-102.67-228.89-228.88S136.29,33.61,262.5,33.61,491.38,136.29,491.38,262.5A227.48,227.48,0,0,1,461.3,375.82l-34.38-34.38a181.33,181.33,0,0,0,18-78.94c0-100.58-81.82-182.41-182.4-182.41S80.09,161.92,80.09,262.5,161.92,444.9,262.5,444.9a181.5,181.5,0,0,0,111.67-38.28l33.06,33.06A227.82,227.82,0,0,1,262.5,491.38Z"/></svg>